<svg xmlns="http://www.w3.org/2000/svg" xmlns:xlink="http://www.w3.org/1999/xlink" version="1.1" x="0px" y="0px" viewBox="0 0 100 125" enable-background="new 0 0 100 100" xml:space="preserve"><path d="M27.9,64c4.4,0,8.3-2,10.9-5.2L59,70.5c-0.6,1.6-0.9,3.2-0.9,5c0,7.7,6.3,14,14,14c7.7,0,14-6.3,14-14c0-7.7-6.3-14-14-14  c-4.4,0-8.3,2-10.9,5.2L41,55c0.6-1.6,0.9-3.2,0.9-5c0-1.8-0.3-3.5-0.9-5l20.2-11.7c2.6,3.2,6.5,5.2,10.9,5.2c7.7,0,14-6.3,14-14  s-6.3-14-14-14c-7.7,0-14,6.3-14,14c0,1.8,0.3,3.5,0.9,5L38.8,41.2C36.2,38,32.3,36,27.9,36c-7.7,0-14,6.3-14,14  C13.9,57.7,20.2,64,27.9,64z M81.7,75.5c0,5.3-4.3,9.6-9.6,9.6c-5.3,0-9.6-4.3-9.6-9.6c0-5.3,4.3-9.6,9.6-9.6  C77.4,65.9,81.7,70.2,81.7,75.5z M62.5,24.5c0-5.3,4.3-9.6,9.6-9.6c5.3,0,9.6,4.3,9.6,9.6s-4.3,9.6-9.6,9.6  C66.8,34.1,62.5,29.8,62.5,24.5z M27.9,40.4c5.3,0,9.6,4.3,9.6,9.6c0,5.3-4.3,9.6-9.6,9.6c-5.3,0-9.6-4.3-9.6-9.6  C18.3,44.7,22.6,40.4,27.9,40.4z"/></svg>