<svg width="50" height="50" viewBox="0 0 50 50" fill="none" xmlns="http://www.w3.org/2000/svg">
<path d="M12.5703 36.4492V38.043H13.3145C13.5801 38.043 13.7695 38.0938 13.8828 38.1953C14 38.2969 14.0586 38.4629 14.0586 38.6934C14.0586 38.9199 14.002 39.082 13.8887 39.1797C13.7754 39.2773 13.584 39.3262 13.3145 39.3262H10.8301C10.5605 39.3262 10.3711 39.2773 10.2617 39.1797C10.1523 39.0859 10.0977 38.9238 10.0977 38.6934C10.0977 38.4629 10.1523 38.2969 10.2617 38.1953C10.375 38.0938 10.5645 38.043 10.8301 38.043H11.1758V32.8691H11.082C10.875 32.8691 10.7168 32.8145 10.6074 32.7051C10.498 32.5957 10.4434 32.4355 10.4434 32.2246C10.4434 31.9941 10.498 31.8301 10.6074 31.7324C10.7168 31.6348 10.9062 31.5859 11.1758 31.5859H12.0781C12.1914 31.5859 12.2754 31.6074 12.3301 31.6504C12.3848 31.6895 12.4121 31.748 12.4121 31.8262V32.248C12.6113 31.9824 12.8516 31.7832 13.1328 31.6504C13.418 31.5137 13.7383 31.4453 14.0938 31.4453C14.8945 31.4453 15.5586 31.7012 16.0859 32.2129C16.6133 32.7246 16.877 33.3691 16.877 34.1465C16.877 34.959 16.6211 35.6328 16.1094 36.168C15.5977 36.6992 14.9531 36.9648 14.1758 36.9648C13.8594 36.9648 13.5625 36.9219 13.2852 36.8359C13.0117 36.7461 12.7734 36.6172 12.5703 36.4492ZM13.9238 32.6934C13.5371 32.6934 13.2188 32.8359 12.9688 33.1211C12.7188 33.4062 12.5938 33.7715 12.5938 34.2168C12.5938 34.6621 12.7188 35.0273 12.9688 35.3125C13.2188 35.5977 13.5371 35.7402 13.9238 35.7402C14.3105 35.7402 14.6289 35.5977 14.8789 35.3125C15.1328 35.0234 15.2598 34.6582 15.2598 34.2168C15.2598 33.7715 15.1348 33.4062 14.8848 33.1211C14.6348 32.8359 14.3145 32.6934 13.9238 32.6934ZM20.627 33.8184V35.7168H22.0098C22.2754 35.7168 22.4629 35.7656 22.5723 35.8633C22.6855 35.9609 22.7422 36.123 22.7422 36.3496C22.7422 36.5801 22.6855 36.7461 22.5723 36.8477C22.4629 36.9492 22.2754 37 22.0098 37H18.7344C18.4648 37 18.2734 36.9492 18.1602 36.8477C18.0469 36.7461 17.9902 36.5801 17.9902 36.3496C17.9902 36.123 18.0449 35.9609 18.1543 35.8633C18.2676 35.7656 18.4609 35.7168 18.7344 35.7168H19.1797V32.8691H18.9277C18.6621 32.8691 18.4727 32.8203 18.3594 32.7227C18.25 32.6211 18.1953 32.4551 18.1953 32.2246C18.1953 31.9941 18.248 31.8301 18.3535 31.7324C18.4629 31.6348 18.6543 31.5859 18.9277 31.5859H20.1758C20.2812 31.5859 20.3633 31.6094 20.4219 31.6562C20.4805 31.6992 20.5098 31.7598 20.5098 31.8379V32.7051C20.9355 32.248 21.332 31.9219 21.6992 31.7266C22.0703 31.5312 22.4688 31.4336 22.8945 31.4336C23.2812 31.4336 23.5879 31.5215 23.8145 31.6973C24.041 31.8691 24.1543 32.1016 24.1543 32.3945C24.1543 32.6211 24.0762 32.8086 23.9199 32.957C23.7637 33.1016 23.5625 33.1738 23.3164 33.1738C23.1406 33.1738 22.9316 33.1094 22.6895 32.9805C22.4512 32.8516 22.2852 32.7871 22.1914 32.7871C22.0039 32.7871 21.7832 32.8711 21.5293 33.0391C21.2754 33.207 20.9746 33.4668 20.627 33.8184ZM26.5039 34.6387C26.6055 35.0723 26.8008 35.3965 27.0898 35.6113C27.3828 35.8262 27.7715 35.9336 28.2559 35.9336C28.7402 35.9336 29.2188 35.8164 29.6914 35.582C30.1641 35.3438 30.4492 35.2246 30.5469 35.2246C30.6914 35.2246 30.8086 35.2793 30.8984 35.3887C30.9922 35.4941 31.0391 35.6309 31.0391 35.7988C31.0391 36.166 30.7676 36.4824 30.2246 36.748C29.6816 37.0137 29.0098 37.1465 28.209 37.1465C27.2637 37.1465 26.4941 36.8809 25.9004 36.3496C25.3105 35.8184 25.0156 35.1348 25.0156 34.2988C25.0156 33.4668 25.3105 32.7852 25.9004 32.2539C26.4941 31.7227 27.2637 31.457 28.209 31.457C29.0527 31.457 29.752 31.707 30.3066 32.207C30.8613 32.7031 31.1387 33.3125 31.1387 34.0352C31.1387 34.2656 31.082 34.4238 30.9688 34.5098C30.8594 34.5957 30.6309 34.6387 30.2832 34.6387H26.5039ZM29.6621 33.7246C29.5957 33.3613 29.4238 33.0801 29.1465 32.8809C28.873 32.6816 28.5156 32.582 28.0742 32.582C27.6484 32.582 27.3047 32.6777 27.043 32.8691C26.7852 33.0566 26.6055 33.3418 26.5039 33.7246H29.6621ZM34.2734 32.8691L35.3281 35.3652L36.4355 32.8691H36.3418C36.1309 32.8691 35.9688 32.8145 35.8555 32.7051C35.7461 32.5957 35.6914 32.4355 35.6914 32.2246C35.6914 31.9941 35.7461 31.8301 35.8555 31.7324C35.9688 31.6348 36.1621 31.5859 36.4355 31.5859H37.8125C38.0859 31.5859 38.2773 31.6367 38.3867 31.7383C38.5 31.8359 38.5566 31.998 38.5566 32.2246C38.5566 32.4355 38.502 32.5957 38.3926 32.7051C38.2832 32.8145 38.123 32.8691 37.9121 32.8691H37.8125L36.0723 36.5664C35.9434 36.832 35.8262 36.9941 35.7207 37.0527C35.6191 37.1152 35.4609 37.1465 35.2461 37.1465C34.8555 37.1465 34.5918 36.9824 34.4551 36.6543C34.4395 36.6152 34.4277 36.5859 34.4199 36.5664L32.7852 32.8691H32.6914C32.4805 32.8691 32.3184 32.8145 32.2051 32.7051C32.0957 32.5957 32.041 32.4355 32.041 32.2246C32.041 31.9941 32.0977 31.8301 32.2109 31.7324C32.3242 31.6348 32.5156 31.5859 32.7852 31.5859H34.2734C34.543 31.5859 34.7344 31.6367 34.8477 31.7383C34.9609 31.8359 35.0176 31.998 35.0176 32.2246C35.0176 32.4355 34.9609 32.5957 34.8477 32.7051C34.7383 32.8145 34.5801 32.8691 34.373 32.8691H34.2734Z" fill="black"/>
<path d="M18 27L25 1L32 27L25 23L18 27Z" fill="#EE5E78" fill-opacity="0.65" stroke="#E85A84" stroke-width="2" stroke-linejoin="round"/>
</svg>
